<svg width="400" height="325" viewBox="0 0 400 325" fill="none" xmlns="http://www.w3.org/2000/svg">
<path d="M249.227 5L392.238 319.999H348.526L315.97 248.145L314.64 245.208H135.56L134.229 248.145L101.673 319.999H57.9609L200.973 5H249.227ZM220.688 58.4297L155.05 201.665L151.804 208.748H298.102L294.889 201.679L229.785 58.4434L225.252 48.4697L220.688 58.4297Z" fill="white" stroke="black" stroke-width="10"/>
<path d="M199.027 5L342.039 319.999H298.325L247.894 208.748H247.902L244.689 201.679L244.683 201.665L243.361 198.748H243.357L179.586 58.4434L175.053 48.4697L170.488 58.4297L106.188 198.748H106.166L104.851 201.665L101.604 208.748H101.655L51.4688 319.999H7.76172L150.773 5H199.027Z" fill="#17B472" stroke="black" stroke-width="10"/>
</svg>
