<svg width="33" height="33" viewBox="0 0 33 33" fill="none" xmlns="http://www.w3.org/2000/svg">
<path d="M14.1587 23.1285C13.3664 23.0406 12.587 22.8603 11.8365 22.5913C11.8593 22.0519 11.873 21.4896 11.873 20.9045V20.1342C12.5816 20.4725 13.3519 20.7079 14.1587 20.8245V15.1902C14.1587 14.2809 14.52 13.4088 15.1629 12.7658C15.8059 12.1228 16.678 11.7616 17.5873 11.7616H23.2216C23.0393 10.4951 22.5559 9.29073 21.8119 8.24967C21.0679 7.20861 20.085 6.36121 18.9457 5.77859C17.8064 5.19597 16.544 4.89513 15.2645 4.90133C13.9849 4.90752 12.7255 5.22057 11.5919 5.81419C11.4111 5.0666 11.1133 4.35228 10.7096 3.69762C12.1914 2.95802 13.8298 2.58714 15.4856 2.61652C17.1414 2.6459 18.7657 3.07467 20.2203 3.86637C21.6749 4.65806 22.9168 5.78928 23.8404 7.16386C24.7641 8.53844 25.3422 10.1157 25.5256 11.7616H29.0159C29.9252 11.7616 30.7973 12.1228 31.4403 12.7658C32.0832 13.4088 32.4445 14.2809 32.4445 15.1902V26.6188C32.4445 27.5281 32.0832 28.4001 31.4403 29.0431C30.7973 29.6861 29.9252 30.0473 29.0159 30.0473H17.5873C16.678 30.0473 15.8059 29.6861 15.1629 29.0431C14.52 28.4001 14.1587 27.5281 14.1587 26.6188V23.1285ZM25.5256 14.0473C25.2659 16.3664 24.2257 18.5284 22.5756 20.1784C20.9255 21.8285 18.7635 22.8688 16.4445 23.1285V26.6188C16.4445 26.9219 16.5649 27.2126 16.7792 27.4269C16.9935 27.6412 17.2842 27.7616 17.5873 27.7616H29.0159C29.319 27.7616 29.6097 27.6412 29.824 27.4269C30.0383 27.2126 30.1587 26.9219 30.1587 26.6188V15.1902C30.1587 14.8871 30.0383 14.5964 29.824 14.3821C29.6097 14.1677 29.319 14.0473 29.0159 14.0473H25.5256ZM23.2216 14.0473H17.5873C17.2842 14.0473 16.9935 14.1677 16.7792 14.3821C16.5649 14.5964 16.4445 14.8871 16.4445 15.1902V20.8245C18.1541 20.5774 19.738 19.7838 20.9594 18.5623C22.1809 17.3408 22.9745 15.757 23.2216 14.0473ZM9.11874 15.3296C8.87874 14.4473 8.49017 13.5628 7.82274 12.8839C8.9016 11.8622 9.58732 10.2348 9.58732 8.33304C9.58732 6.7399 9.26503 5.64504 8.68217 4.76962C8.42355 4.3931 8.12464 4.0459 7.79074 3.73419C7.66278 3.61064 7.53324 3.48873 7.40217 3.36847C7.26274 3.23819 7.13474 3.11933 6.96789 2.95247C6.62503 2.60962 6.58617 2.33533 6.58617 2.19133C6.58655 2.11129 6.59967 2.03182 6.62503 1.9559C6.72953 1.7299 6.75737 1.47596 6.70431 1.23269C6.65125 0.989418 6.5202 0.77013 6.33108 0.608175C6.14196 0.446219 5.90512 0.350457 5.65658 0.335452C5.40804 0.320447 5.1614 0.387019 4.95417 0.525045L4.9496 0.52733L4.94274 0.531902L4.92217 0.545616L4.8536 0.59133C4.51074 0.835881 4.18042 1.09755 3.86389 1.37533C3.29246 1.88047 2.54732 2.6279 2.01932 3.51933C1.5584 4.25837 1.18848 5.05039 0.917601 5.87819C0.643315 6.69876 0.444458 7.5879 0.444458 8.33304C0.444458 10.2348 1.13017 11.8599 2.20903 12.8862C1.5416 13.5628 1.15303 14.4473 0.91303 15.3319C0.444458 17.0508 0.444458 19.1765 0.444458 20.8199V20.9045C0.444458 25.6085 1.32446 28.4016 2.32103 30.0633C2.8216 30.8953 3.34274 31.4325 3.77932 31.7708C4.01194 31.9522 4.26511 32.1056 4.5336 32.2279C4.68887 32.2846 4.85111 32.32 5.01589 32.333C5.20789 32.333 5.49817 32.2279 5.49817 32.2279C5.76666 32.1056 6.01983 31.9522 6.25246 31.7708C6.68674 31.4325 7.21246 30.8953 7.71074 30.0633C8.70732 28.4039 9.58732 25.6085 9.58732 20.9045V20.8222C9.58732 19.1765 9.58732 17.053 9.11874 15.3296ZM3.84332 14.4839C4.1016 14.2233 4.44674 14.0473 5.01589 14.0473C5.58732 14.0473 5.93017 14.2256 6.18846 14.4816C6.47646 14.7719 6.7256 15.2428 6.91303 15.9308C7.29246 17.3273 7.3016 19.1605 7.3016 20.9045C7.3016 25.3433 6.46732 27.693 5.7496 28.8885C5.47532 29.3456 5.21703 29.6405 5.01589 29.8256C4.72849 29.5493 4.48149 29.2338 4.28217 28.8885C3.56446 27.6908 2.73017 25.3433 2.73017 20.9045C2.73017 19.1605 2.73932 17.3273 3.11874 15.9308C3.30617 15.245 3.55532 14.7742 3.84332 14.4839ZM5.01589 11.7616C4.13589 11.7616 2.73017 10.7833 2.73017 8.33304C2.73017 7.93762 2.84903 7.31133 3.08674 6.60276C3.30337 5.93381 3.60202 5.29428 3.97589 4.69876C4.17474 4.36276 4.43303 4.0359 4.71189 3.73647C4.8696 4.01533 5.0776 4.29647 5.35189 4.57076C5.51874 4.73762 5.73589 4.93876 5.92103 5.11247L6.20446 5.37762C6.44446 5.61076 6.6296 5.81419 6.77817 6.04047C7.05246 6.44962 7.3016 7.06904 7.3016 8.33304C7.3016 10.7833 5.89589 11.7616 5.01589 11.7616Z" fill="white"/>
</svg>
